<svg  focusable="false" width="14px" height="8px" viewBox="0 0 14 8">
    <g stroke="none" stroke-width="1" fill="none" fill-rule="evenodd">
        <g id="chevron-down" transform="translate(-333.000000, -931.000000)" fill="#98A4AE">
            <g transform="translate(0.000000, 364.000000)">
                <g transform="translate(27.000000, 277.000000)">
                    <path d="M309.428571,294.642496 L309.428571,286.785354 C309.428571,286.390864 309.108775,286.071068 308.714286,286.071068 L308.714286,286.071068 L308.714286,286.071068 C308.319797,286.071068 308,286.390864 308,286.785354 L308,286.785354 L308,295.356782 C308,295.554027 308.079949,295.732598 308.209209,295.861858 C308.33847,295.991119 308.517041,296.071068 308.714286,296.071068 L317.285714,296.071068 C317.680203,296.071068 318,295.751271 318,295.356782 C318,294.962293 317.680203,294.642496 317.285714,294.642496 L317.285714,294.642496 L309.428571,294.642496 Z" transform="translate(313.000000, 291.071068) scale(-1, 1) rotate(-45.000000) translate(-313.000000, -291.071068) "></path>
                </g>
            </g>
        </g>
    </g>
</svg>